<svg xmlns="http://www.w3.org/2000/svg" viewBox="0 0 512 512" fill="#FFFFFF"><path d="M192.4 42.1c-2.6-4.9-8.7-6.6-13.6-4l-0.2 0.1c-4.8 2.6-6.6 8.7-4 13.6 1.8 3.3 5.2 5.2 8.8 5.2 1.6 0 3.3-0.4 4.8-1.2l0.2-0.1C193.2 53 195 46.9 192.4 42.1z"/><path d="M367.2 22C319.6-6.3 262.1-7.4 213.5 19.2c-4.9 2.6-6.6 8.7-4 13.6 2.6 4.9 8.7 6.6 13.6 4 42.4-23.1 92.5-22.2 134 2.4 41.5 24.6 66.3 68.2 66.3 116.5v205.8c0 72-58.6 130.6-130.6 130.6 -37.4 0-72-15.8-96.3-42.3l44.4-28.3c0.2-0.1 0.4-0.3 0.6-0.4 14 12 32 19 51.3 19 43.3 0 78.6-35.2 78.6-78.6V155.6c0-29.7-15.3-56.5-40.8-71.7 -25.6-15.2-56.4-15.7-82.5-1.5l-66.8 36.5c-35 19.1-49.7 61.1-34.4 97.9l3 7.8L101.8 244.7l-2.9-7.5c0-0.1-0.1-0.2-0.1-0.3 -12.4-29.6-13.4-62.6-2.8-92.9 10.6-30.3 32-55.5 60.2-70.9 4.9-2.6 6.6-8.7 4-13.6 -2.6-4.9-8.7-6.6-13.6-4 -32.6 17.8-57.2 46.8-69.5 81.8 -12.2 35-11.1 73 3.2 107.2l4.4 11.4c-1.7 2.1-3.1 4.5-4.1 7.1 -3 7.5-3 15.6 0.1 23l35.5 85.2c0 0 0 0 0 0 3.1 7.4 8.9 13.2 16.4 16.2 2.8 1.2 5.7 1.9 8.7 2.1l12.6 29.9c23.5 56 78 92.3 138.8 92.3 83 0 150.6-67.6 150.6-150.6V155.6C443.3 100.2 414.9 50.3 367.2 22zM190.7 136.4l66.8-36.5c19.8-10.8 43.3-10.4 62.7 1.1 19.4 11.5 31 31.9 31 54.5v205.8c0 32.3-26.3 58.6-58.6 58.6 -23.6 0-44.8-14.1-54-35.9l-12.6-30c6.8-8.4 8.9-20.1 4.5-30.7l-35.5-85.2c-4.6-10.8-14.8-17.6-25.8-18.4l-4.1-10.4c0-0.1-0.1-0.2-0.1-0.3C153.8 181.8 164.7 150.6 190.7 136.4zM147.9 369.1c-0.1 0-0.2 0.1-0.3 0.1 -0.2 0.1-0.5 0.2-0.7 0.3 0 0 0 0 0 0 -0.3 0.1-0.6 0.2-1 0.2 -4.6 0.9-9.4-1.5-11.3-6l-23.9-57.5 53.6-22.5c5.1-2.1 7.5-8 5.3-13.1 -2.1-5.1-8-7.5-13.1-5.3l-53.6 22.5 -3.9-9.3c-1-2.5-1.1-5.2 0-7.8s3-4.5 5.5-5.5l58.8-24.7c5.2-2.2 11.1 0.3 13.2 5.4l35.5 85.2c1 2.5 1.1 5.2 0 7.8 -0.8 1.9-2 3.4-3.6 4.5 -0.6 0.4-1.2 0.7-1.8 1L147.9 369.1zM184 433.8c-4.5-6.8-8.5-14.1-11.7-21.8l-11.2-26.7 15.4-6.5 32.6-13.7 11.2 26.7c2.1 5 4.7 9.7 7.7 14.1L184 433.8z"/><path d="M200.5 389.9c-1.9-1.9-4.4-2.9-7.1-2.9 -2.6 0-5.2 1.1-7.1 2.9 -1.9 1.9-2.9 4.4-2.9 7.1s1.1 5.2 2.9 7.1c1.9 1.9 4.4 2.9 7.1 2.9 2.6 0 5.2-1.1 7.1-2.9 1.9-1.9 2.9-4.4 2.9-7.1S202.4 391.7 200.5 389.9z"/><path d="M408.4 165.9c-1.9-1.9-4.4-2.9-7.1-2.9 -2.6 0-5.2 1.1-7.1 2.9 -1.9 1.9-2.9 4.4-2.9 7.1 0 2.6 1.1 5.2 2.9 7.1 1.9 1.9 4.4 2.9 7.1 2.9 2.6 0 5.2-1.1 7.1-2.9 1.9-1.9 2.9-4.4 2.9-7.1C411.3 170.4 410.2 167.8 408.4 165.9z"/><path d="M401.3 201.3c-5.5 0-10 4.5-10 10v102c0 5.5 4.5 10 10 10s10-4.5 10-10v-102C411.3 205.8 406.8 201.3 401.3 201.3z"/></svg>
