<svg xmlns="http://www.w3.org/2000/svg" viewBox="0 0 60 60" fill="#FFFFFF">
  <path d="M55 6.6V2.9C55 1.3 53.7 0 52.1 0H7.9C6.3 0 5 1.3 5 2.9v3.7l-5 5V15v2 0.5c0 0.2 0 0.3 0 0.5H0v25 2 10 2 3h6v-3h48v3h6v-3 -2V45v-2V18h0C60 17.8 60 17.7 60 17.5V17v-2 -3.4L55 6.6zM53.5 23H54v20h-5.6C48.8 42.4 49 41.7 49 41c0-2.1-1.6-3.7-3.6-4C45.8 36.4 46 35.7 46 35c0-2.2-1.8-4-4-4s-4 1.8-4 4c0 0.7 0.2 1.4 0.6 2C36.6 37.3 35 38.9 35 41c0 0.7 0.2 1.4 0.6 2H20v-3h4c0.6 0 1-0.4 1-1s-0.4-1-1-1h-4 -0.6l7-7 -1.8-1.8c-4.2-4.2-11-4.2-15.2 0L7.6 31l7 7H14h-4c-0.6 0-1 0.4-1 1s0.4 1 1 1h4v3H6V23h0.5c1.9 0 3.5-0.9 4.5-2.3C12 22.1 13.6 23 15.5 23h1c1.9 0 3.5-0.9 4.5-2.3C22 22.1 23.6 23 25.5 23s3.5-0.9 4.5-2.3C31 22.1 32.6 23 34.5 23s3.5-0.9 4.5-2.3C40 22.1 41.6 23 43.5 23h1c1.9 0 3.5-0.9 4.5-2.3C50 22.1 51.6 23 53.5 23zM7 45h2v10H7V45zM11 45h2v10h-2V45zM16 40h0.6l0.4 0.4L17.4 40H18v3h-2V40zM17 30c-0.6 0-1 0.4-1 1v5.6L10.4 31l0.4-0.4c3.4-3.4 8.9-3.4 12.3 0L23.6 31 18 36.6V31C18 30.4 17.6 30 17 30zM15 45h2v10h-2V45zM19 45h1 1v10h-2V45zM23 45h2v10h-2V45zM27 45h2v10h-2V45zM31 45h2v10h-2V45zM35 45h2v10h-2V45zM45 43c-1.1 0-2-0.9-2-2s0.9-2 2-2 2 0.9 2 2S46.1 43 45 43zM42 37c-1.1 0-2-0.9-2-2s0.9-2 2-2 2 0.9 2 2S43.1 37 42 37zM41 41c0 1.1-0.9 2-2 2s-2-0.9-2-2 0.9-2 2-2S41 39.9 41 41zM39 45h2v10h-2V45zM43 45h2v10h-2V45zM47 45h2v10h-2V45zM51 45h2v10h-2V45zM15 2h6v4.9l-1 4.9L20 15H20h-8v-2.7l3-5V2zM38 12.1V15h-7V2h6v5L38 12.1zM48 17.5c0 1.9-1.6 3.5-3.5 3.5h-1c-1.9 0-3.5-1.6-3.5-3.5V17h8V17.5zM38 17.5c0 1.9-1.6 3.5-3.5 3.5S31 19.4 31 17.5V17h7V17.5zM29 17.5c0 1.9-1.6 3.5-3.5 3.5S22 19.4 22 17.5V17h7V17.5zM29 15h-7v-2.9l1-4.9L23 2H29V15zM12 17h8v0.5c0 1.9-1.6 3.5-3.5 3.5h-1c-1.9 0-3.5-1.6-3.5-3.5V17zM48 15h-8v-3l-1-5.1V2h6v5.3l3 5V15zM2 12.4l5-5V2.9C7 2.4 7.4 2 7.9 2H13v4.7l-3 5V15H2V12.4zM10 17v0.5c0 1.9-1.6 3.5-3.5 3.5H5.5l-0.4 0c-0.7-0.1-1.3-0.3-1.8-0.7 0 0 0 0 0 0 -0.4-0.3-0.7-0.7-0.9-1.1 0 0 0 0 0 0 -0.1-0.1-0.1-0.3-0.2-0.5l0-0.1C2.1 18.2 2 17.9 2 17.5V17H10zM2 21.7c0.6 0.5 1.3 0.8 2 1V43H2V21.7zM2 45h3v10H2V45zM4 58H2v-1h2V58zM58 58h-2v-1h2V58zM58 55h-3V45h3V55zM56 43V22.8c0.7-0.2 1.4-0.6 2-1V43H56zM58 17.5c0 0.4-0.1 0.7-0.2 1.1l0 0.1c-0.1 0.2-0.1 0.3-0.2 0.5 0 0 0 0 0 0 -0.2 0.4-0.5 0.8-0.9 1.1 0 0 0 0 0 0 -0.5 0.4-1.1 0.6-1.8 0.7L54.5 21H53.5c-1.9 0-3.5-1.6-3.5-3.5V17h8V17.5zM50 15v-3.3l-3-5V2h5.1C52.6 2 53 2.4 53 2.9v4.5l5 5V15H50z"/>
</svg>
