<svg xmlns="http://www.w3.org/2000/svg" viewBox="0 0 512 512" fill="#FFFFFF">
  <path d="M506.5 288c-3.4-1.7-7.4-1.4-10.4 0.9l-78.6 58V98c0-5.5-4.5-10-10-10s-10 4.5-10 10v87.6c-3.9-1.3-8.2-1.8-12.6-1.4l-62.7 7c-2.1 0.2-4.2-0.9-5.1-2.8l-14.5-28.4 10.6-19.3c6.1-11.1 7.5-23.9 3.9-36 3-0.1 6-0.5 9-1.1 13.3-2.9 25.2-10.8 33.5-22.3 8.3-11.5 12.1-25.3 10.7-38.8 -1.5-13.9-8.2-25.9-19.1-33.8 -22-15.9-54.1-9.3-71.6 14.8 -8.3 11.5-12.1 25.3-10.7 38.8 0.2 1.5 0.4 3 0.7 4.5 -4.4-0.6-8.8-0.6-13.2 0 -0.5-0.4-1-0.7-1.5-1l-34.9-19.2c-13.6-7.5-29.4-9.4-44.4-5.3 -15 4.1-27.6 13.8-35.5 27.2l-52.7 89.4c-8.2 14-10.4 30.3-6.1 46 4.3 15.7 14.5 28.6 28.8 36.4l22.6 12.3c-3.2 16.1-1.2 33.2 6.5 48.7l3.8 7.6 -8.3 92.5c0 0.3 0 0.6 0 0.9v80.6c0 16 13.1 29.1 29.1 29.1h47.2c13.4 0 24.3-10.9 24.3-24.2s-10.9-24.2-24.2-24.2h-10.3c-3.2 0-6.2-1.5-8.2-4.1 -1.3-1.8-2-3.8-2-6v-46.1l28.5-77.2 14.5 10.4c5.4 3.9 8.7 10.2 8.7 16.9v93.8c0 13.1 10.7 23.8 23.8 23.8h33.3 12.6 45.3c4.3 0 8.1-2.7 9.5-6.8l26.2-78 99.4-73.4v175.2h-20v-68.8c0-5.5-4.5-10-10-10s-10 4.5-10 10v68.8h-44.5c-5.5 0-10 4.5-10 10s4.5 10 10 10h94.5c5.5 0 10-4.5 10-10V297C512 293.2 509.9 289.7 506.5 288zM295.8 35.2c7.1-9.8 17.8-15.2 28.1-15.2 5.5 0 11 1.6 15.6 4.9 6.2 4.5 10 11.4 10.9 19.6 0.9 8.6-1.6 17.5-7 25 -5.4 7.5-13.1 12.7-21.6 14.5 -8 1.7-15.8 0.3-22-4.1 -0.2-0.1-0.3-0.2-0.5-0.3 -6-4.5-9.7-11.3-10.6-19.4C287.9 51.6 290.4 42.7 295.8 35.2zM275.3 89.3l8.6 4.3c1.4 0.7 2.7 1.5 3.9 2.4 0.1 0.1 0.2 0.1 0.2 0.2 0 0 0.1 0 0.1 0.1 4.5 3.4 7.9 8.1 9.6 13.7 2.2 7.2 1.5 14.7-2.1 21.3l-4.1 7.4 -0.6-1.1c-2.5-4.9-8.5-6.9-13.5-4.3 -4.9 2.5-6.9 8.5-4.3 13.5l26.1 51c4.7 9.2 14.8 14.7 25.1 13.5l62.7-7c4.7-0.5 9 2.5 10.1 7.1 0.6 2.6 0.1 5.3-1.4 7.5 -1.5 2.2-3.9 3.6-6.5 3.9l-81.7 9.5c-10.1 1.2-20-4.1-24.6-13.1l-18.1-35.3c-2.5-4.9-8.5-6.9-13.5-4.3 -4.9 2.5-6.9 8.5-4.3 13.5l7.1 13.9 -19.2 35.1 -52.8-34.1 56.7-106.8C245.8 87.9 262.1 82.7 275.3 89.3zM157.2 78.6c10.9-18.5 34.2-24.9 53-14.5l16.5 9.1 -17.5 11.4c-17.8 11.6-40.1 14.2-60 7.4L157.2 78.6zM101.7 202.2c-0.5-1.2-0.9-2.4-1.2-3.7 -2.9-10.4-1.4-21.2 4-30.5l34.5-58.6c10.5 4.2 21.6 6.3 32.7 6.3 14.6 0 29.2-3.6 42.3-10.7l-37.2 70.1 -12.5-8.8c-6.8-4.8-15.1-6.6-23.3-5.2 -8.2 1.5-15.3 6.1-20.1 13L101.7 202.2zM139.2 233.4l-19.6-10.7c-1.9-1-3.6-2.2-5.3-3.5l23.1-33.7c1.7-2.4 4.2-4.1 7.1-4.6 2.9-0.5 5.8 0.1 8.3 1.8l14.6 10.3 -6.5 12.3 -9.6 10.5C146.3 221.2 142.3 227.1 139.2 233.4zM200.5 483.5h10.3c2.3 0 4.3 1.9 4.3 4.3 0 2.3-1.9 4.3-4.2 4.3h-47.2c-5 0-9.1-4.1-9.1-9.1v-19.6h17.6c1 2.8 2.4 5.5 4.2 7.9C181.9 478.9 191 483.5 200.5 483.5zM244.9 324.1l-31.1-22.3c-4.5-3.2-10.7-2.2-14 2.3 -3.2 4.4-2.2 10.5 2.1 13.8l-31 84.1c-0.4 1.1-0.6 2.3-0.6 3.5v37.9h-15.8v-40.6l8.5-94.8c0.2-1.8-0.2-3.7-1-5.3l-5-10.1c-6.4-13.1-7.5-27.7-3.6-41 0.3-0.7 0.5-1.3 0.6-2 2.5-7.3 6.5-14.2 11.9-20.2l4.8-5.2 96.8 62c19.4 12.2 28.5 35.4 22.7 57.5l-16.8 64h-11.5V357.3C262 344.2 255.6 331.8 244.9 324.1zM311.7 455h-12.6 -33.3c-2.1 0-3.8-1.7-3.8-3.8v-23.5h11.5c1.8 6.1 5.3 11.6 10.2 16 6.4 5.7 14.7 8.9 23.3 8.9h4.7c0.7 0 1.3 0.6 1.3 1.3C313 454.4 312.4 455 311.7 455zM397.5 361.7l-19.3 14.2c-1.7 1.2-2.9 2.9-3.5 4.9l-24.9 74.2h-16.9c0-0.4 0.1-0.8 0.1-1.2 0-11.7-9.5-21.2-21.2-21.2h-4.7c-3.7 0-7.2-1.3-10-3.8 -3.2-2.8-4.9-6.7-5-10.8 0-0.1 0-0.2 0-0.3 0-0.1 0-0.1 0-0.2 0-1.2 0.2-2.5 0.5-3.7l17.1-65.1c8-30.7-4.6-62.6-31.4-79.5l-26.3-16.6 13.4-24.4c7.7 14.8 23.1 24.1 39.6 24.1 1.7 0 3.4-0.1 5.1-0.3l81.7-9.5c2-0.2 4-0.7 5.9-1.3V361.7z"/>
  <path d="M414.6 56.9c-1.9-1.9-4.4-2.9-7.1-2.9 -2.6 0-5.2 1.1-7.1 2.9 -1.9 1.9-2.9 4.4-2.9 7.1 0 2.6 1.1 5.2 2.9 7.1 1.9 1.9 4.4 2.9 7.1 2.9 2.6 0 5.2-1.1 7.1-2.9 1.9-1.9 2.9-4.4 2.9-7.1C417.5 61.3 416.4 58.8 414.6 56.9z"/>
  <path d="M112.4 498.5l-39-104c-1.5-3.9-5.2-6.5-9.4-6.5H10c-5.5 0-10 4.5-10 10s4.5 10 10 10h47.1l36.6 97.5c1.5 4 5.3 6.5 9.4 6.5 1.2 0 2.4-0.2 3.5-0.6C111.7 509.4 114.3 503.6 112.4 498.5z"/>
  <path d="M511 161.4c-2.4-5-8.4-7-13.4-4.6l-54 26.2c-3.4 1.7-5.6 5.2-5.6 9v90.7c0 5.5 4.5 10 10 10s10-4.5 10-10V198.2l48.4-23.5C511.3 172.3 513.4 166.3 511 161.4z"/>
  <path d="M469.1 377.8c-1.9-1.9-4.4-2.9-7.1-2.9s-5.2 1.1-7.1 2.9c-1.9 1.9-2.9 4.4-2.9 7.1 0 2.6 1.1 5.2 2.9 7.1 1.9 1.9 4.4 2.9 7.1 2.9s5.2-1.1 7.1-2.9c1.9-1.9 2.9-4.4 2.9-7.1C472 382.2 470.9 379.6 469.1 377.8z"/>
</svg>
