<svg xmlns="http://www.w3.org/2000/svg" viewBox="0 0 512 512" fill="#FFFFFF"><path d="M429.2 159.2c-1.9-1.9-4.4-2.9-7.1-2.9 -2.6 0-5.2 1.1-7.1 2.9 -1.9 1.9-2.9 4.4-2.9 7.1s1.1 5.2 2.9 7.1c1.9 1.9 4.4 2.9 7.1 2.9 2.6 0 5.2-1.1 7.1-2.9 1.9-1.9 2.9-4.4 2.9-7.1S431 161 429.2 159.2z"/><path d="M93 334.6l-0.3-0.3c-3.9-3.9-10.2-3.9-14.1 0 -3.9 3.9-3.9 10.2 0 14.1l0.3 0.3c2 2 4.5 2.9 7.1 2.9 2.6 0 5.1-1 7.1-2.9C96.9 344.9 96.9 338.5 93 334.6z"/><path d="M508.7 439.7l-47-41.9c-15.3-13.6-37.5-15-54.2-4.5l-60.4-60.4 53.2-53.2c35.6-35.6 63.4-77.3 82.7-123.8C502.2 109.5 512 60.4 512 10c0-5.5-4.5-10-10-10 -50.4 0-99.5 9.8-146 29 -46.5 19.3-88.2 47.1-123.8 82.7l-53.2 53.2 -60.4-60.4c10.5-16.7 9.1-38.9-4.5-54.2L72.3 3.3c-1.8-2.1-4.4-3.3-7.2-3.3 -2.8-0.1-5.4 1-7.4 2.9L2.9 57.7c-1.9 1.9-3 4.6-2.9 7.4 0.1 2.8 1.3 5.3 3.3 7.2l47 41.9c8.6 7.7 19.3 11.5 30.1 11.5 8.4 0 16.8-2.3 24.1-7l60.4 60.4 -53.2 53.2c-35.6 35.6-63.4 77.3-82.7 123.8C9.8 402.5 0 451.6 0 502c0 5.5 4.5 10 10 10 50.4 0 99.5-9.8 146-29 46.5-19.3 88.2-47.1 123.8-82.7l53.2-53.2 60.4 60.4c-10.5 16.7-9.2 38.9 4.5 54.2l41.9 47c1.8 2.1 4.4 3.3 7.2 3.3 0.1 0 0.2 0 0.3 0 2.6 0 5.2-1.1 7.1-2.9l54.8-54.8c1.9-1.9 3-4.6 2.9-7.4C511.9 444.2 510.7 441.6 508.7 439.7zM103.8 89.7L83.6 69.5c-3.9-3.9-10.2-3.9-14.1 0 -3.9 3.9-3.9 10.2 0 14.1l20.2 20.2c-8.6 3.4-18.7 1.9-26.1-4.6L24.6 64.4 64.4 24.6l34.8 39.1C105.7 70.9 107.2 81.1 103.8 89.7zM265.6 386.1c-20.7 20.7-43.4 38.5-67.8 53.4l-75.2-75.2c-3.9-3.9-10.2-3.9-14.1 0 -3.9 3.9-3.9 10.2 0 14.1l71.3 71.3c-44.5 23.7-93.6 37.9-144.9 41.4l64.8-64.8c3.9-3.9 3.9-10.2 0-14.1 -3.9-3.9-10.2-3.9-14.1 0l-64.8 64.8c5.9-87.2 42.7-168.3 105-230.6l53.2-53.2 31.3 31.3 -2.3 2.3c-30.6 30.6-47.5 71.3-47.5 114.6 0 5.5 4.5 10 10 10 43.3 0 84-16.9 114.6-47.5l2.3-2.3 31.3 31.3L265.6 386.1zM273.3 287.5l-2.3 2.3c-24.4 24.4-56 38.8-90.1 41.2 2.4-34 16.9-65.7 41.2-90.1l2.3-2.3L273.3 287.5zM238.7 224.5l2.2-2.2c24.4-24.4 56-38.8 90.1-41.2 -2.4 34-16.9 65.7-41.2 90.1l-2.2 2.2L238.7 224.5zM332.9 318.8l-31.3-31.3 2.2-2.2c30.4-30.4 47.2-70.7 47.5-113.6 0.3-2.9-0.7-5.8-2.8-8l0 0c-2.1-2.1-5-3.1-7.8-2.9 -43 0.2-83.4 17-113.8 47.5l-2.2 2.2 -31.3-31.3 53.2-53.2c20.7-20.7 43.5-38.6 67.8-53.4l73.4 73.4c2 2 4.5 2.9 7.1 2.9s5.1-1 7.1-2.9c3.9-3.9 3.9-10.2 0-14.1l-69.6-69.6c44.5-23.7 93.6-37.8 144.8-41.3l-62 62c-3.9 3.9-3.9 10.2 0 14.1 2 2 4.5 2.9 7.1 2.9s5.1-1 7.1-2.9l62-62c-5.9 87.2-42.7 168.3-105 230.6L332.9 318.8zM447.6 487.4l-34.8-39.1c-6.5-7.3-8-17.4-4.6-26.1l19.9 19.9c2 2 4.5 2.9 7.1 2.9s5.1-1 7.1-2.9c3.9-3.9 3.9-10.2 0-14.1l-19.9-19.9c3-1.2 6.1-1.8 9.3-1.8 6 0 12 2.1 16.8 6.4l39.1 34.8L447.6 487.4z"/><path d="M117.8 189.1c-3.9-3.9-10.2-3.9-14.1 0 -10 10-26.3 10-36.2 0 -17.8-17.8-46.7-17.8-64.5 0 -3.9 3.9-3.9 10.2 0 14.1 3.9 3.9 10.2 3.9 14.1 0 10-10 26.3-10 36.2 0 8.9 8.9 20.6 13.3 32.3 13.3s23.4-4.4 32.3-13.3C121.8 199.3 121.8 193 117.8 189.1z"/><path d="M509.1 326.6c-3.9-3.9-10.2-3.9-14.1 0 -10 10-26.3 10-36.2 0 -17.8-17.8-46.7-17.8-64.5 0 -3.9 3.9-3.9 10.2 0 14.1 3.9 3.9 10.2 3.9 14.1 0 10-10 26.3-10 36.2 0 8.9 8.9 20.6 13.3 32.3 13.3s23.4-4.4 32.3-13.3C513 336.9 513 330.5 509.1 326.6z"/><path d="M363.8 451.4c-3.9-3.9-10.2-3.9-14.1 0 -10 10-26.3 10-36.2 0 -17.8-17.8-46.7-17.8-64.5 0 -3.9 3.9-3.9 10.2 0 14.1 3.9 3.9 10.2 3.9 14.1 0 10-10 26.3-10 36.2 0 8.9 8.9 20.6 13.3 32.3 13.3s23.4-4.4 32.3-13.3C367.8 461.6 367.8 455.3 363.8 451.4z"/><path d="M263.2 45.3c-3.9-3.9-10.2-3.9-14.1 0 -4.8 4.8-11.3 7.5-18.1 7.5s-13.3-2.7-18.1-7.5c-8.6-8.6-20.1-13.4-32.3-13.4 -12.2 0-23.6 4.7-32.3 13.4 -3.9 3.9-3.9 10.2 0 14.1 3.9 3.9 10.2 3.9 14.1 0 4.8-4.8 11.3-7.5 18.1-7.5 6.8 0 13.3 2.7 18.1 7.5 8.6 8.6 20.1 13.4 32.3 13.4s23.6-4.7 32.3-13.4C267.1 55.5 267.1 49.2 263.2 45.3z"/></svg>
