<svg xmlns="http://www.w3.org/2000/svg" viewBox="0 0 512 512" fill="#FFFFFF">
  <path d="M503.5 494.9h-59.7v-25.6h25.6c4.7 0 8.5-3.8 8.5-8.5v-15.7c0-19.1-15.2-34.7-34.1-35.4v-17.1H460.8c4.7 0 8.5-3.8 8.5-8.5s-3.8-8.5-8.5-8.5h-17.1V358.4H460.8c4.7 0 8.5-3.8 8.5-8.5s-3.8-8.5-8.5-8.5h-17.1V332.8c0-4.7-3.8-8.5-8.5-8.5s-8.5 3.8-8.5 8.5v8.5h-102.4V332.8c0-4.7-3.8-8.5-8.5-8.5s-8.5 3.8-8.5 8.5v8.5h-17.1c-4.7 0-8.5 3.8-8.5 8.5s3.8 8.5 8.5 8.5H307.2v17.1h-17.1c-4.7 0-8.5 3.8-8.5 8.5s3.8 8.5 8.5 8.5H307.2v17.1c-19 0.7-34.1 16.3-34.1 35.4V460.8c0 4.7 3.8 8.5 8.5 8.5h25.6v25.6H128V409.6h93.9c5.8 0 9.9-5.7 8.1-11.2l-102.4-315.7c-2.6-7.9-13.7-7.9-16.2 0L9 398.4c-1.8 5.5 2.3 11.2 8.1 11.2h93.9v85.3H8.5c-4.7 0-8.5 3.8-8.5 8.5S3.8 512 8.5 512h494.9c4.7 0 8.5-3.8 8.5-8.5S508.2 494.9 503.5 494.9zM28.8 392.5l90.7-279.5 90.7 279.5H128v-64.7l23.1-23.1c3.3-3.3 3.3-8.7 0-12.1 -3.3-3.3-8.7-3.3-12.1 0l-19.6 19.6 -19.6-19.6c-3.3-3.3-8.7-3.3-12.1 0 -3.3 3.3-3.3 8.7 0 12.1l23.1 23.1v64.7H28.8zM324.3 409.6v-17.1h102.4V409.6H324.3zM426.7 358.4v17.1h-102.4V358.4H426.7zM290.1 445.1c0-10.2 8.2-18.4 18.4-18.4h133.9c10.2 0 18.4 8.2 18.4 18.4v7.2H290.1V445.1zM324.3 469.3h102.4v25.6h-102.4V469.3z"/>
  <path d="M339.2 196.3h99.2c17.2 0 30.9-15 30.9-33.1 0-16.3-11.1-30.1-25.9-32.6 -2.8-33.4-22.9-53.8-50.9-53.8 -18.2 0-33.6 7-46.1 18.4 -5.4 5-9.5 10-12.3 14.2 -20.1 2.7-35.5 21.2-35.5 43.2C298.7 176.6 316.6 196.3 339.2 196.3zM339.2 126.2c3.2 0 6.1-1.8 7.6-4.6 0.4-0.7 1.2-2.1 2.6-4.1 2.4-3.3 5.2-6.7 8.6-9.8 9.5-8.7 20.9-13.9 34.5-13.9 20.2 0 34.1 15.6 34.1 44.8 0 4.7 3.8 8.5 8.5 8.5h3.2c7.4 0 13.9 7.1 13.9 16s-6.4 16-13.9 16h-99.2c-12.8 0-23.5-11.7-23.5-26.5C315.7 137.9 326.4 126.2 339.2 126.2z"/>
  <path d="M170.7 25.6c18.9 0 34.1 15.3 34.1 34.1 0 4.7 3.8 8.5 8.5 8.5 4.7 0 8.5-3.8 8.5-8.5 0-23.6 19.1-42.7 42.7-42.7 4.7 0 8.5-3.8 8.5-8.5S269.2 0 264.5 0c-22.3 0-41.7 12.2-52 30.3 -9.3-13.2-24.6-21.8-41.9-21.8 -4.7 0-8.5 3.8-8.5 8.5S166 25.6 170.7 25.6z"/>
</svg>
