<svg xmlns="http://www.w3.org/2000/svg" viewBox="0 0 512 512" fill="#FFFFFF"><path d="M265.8 132c-0.1-0.6-0.3-1.3-0.6-1.9 -0.2-0.6-0.6-1.2-0.9-1.7 -0.4-0.6-0.8-1.1-1.2-1.5 -0.5-0.5-1-0.9-1.5-1.2 -0.5-0.4-1.1-0.7-1.7-0.9 -0.6-0.2-1.2-0.4-1.9-0.6 -1.3-0.3-2.6-0.3-3.9 0 -0.6 0.1-1.3 0.3-1.9 0.6 -0.6 0.3-1.2 0.6-1.7 0.9 -0.6 0.4-1.1 0.8-1.5 1.3 -0.5 0.5-0.9 1-1.2 1.5 -0.4 0.5-0.7 1.1-0.9 1.7 -0.2 0.6-0.4 1.2-0.6 1.9 -0.1 0.6-0.2 1.3-0.2 2 0 0.6 0.1 1.3 0.2 2 0.1 0.6 0.3 1.3 0.6 1.9 0.3 0.6 0.6 1.2 0.9 1.7 0.4 0.6 0.8 1.1 1.2 1.5 0.5 0.5 1 0.9 1.5 1.2 0.5 0.4 1.1 0.7 1.7 0.9 0.6 0.3 1.2 0.4 1.9 0.6 0.6 0.1 1.3 0.2 2 0.2 0.6 0 1.3-0.1 2-0.2s1.3-0.3 1.9-0.6c0.6-0.2 1.2-0.6 1.7-0.9 0.6-0.4 1.1-0.8 1.5-1.2 0.5-0.5 0.9-1 1.2-1.5 0.4-0.5 0.7-1.1 0.9-1.7 0.3-0.6 0.5-1.2 0.6-1.9 0.1-0.6 0.2-1.3 0.2-1.9C266 133.4 265.9 132.7 265.8 132z"/><path d="M216.4 434c-0.1-0.6-0.3-1.3-0.6-1.9 -0.2-0.6-0.6-1.2-0.9-1.7 -0.4-0.5-0.8-1.1-1.2-1.5s-1-0.9-1.5-1.2c-0.5-0.4-1.1-0.7-1.7-0.9 -0.6-0.2-1.2-0.4-1.9-0.6 -3.2-0.7-6.7 0.4-9 2.7 -0.5 0.5-0.9 1-1.2 1.5 -0.4 0.5-0.7 1.1-0.9 1.7 -0.2 0.6-0.4 1.2-0.6 1.9 -0.1 0.6-0.2 1.3-0.2 2s0.1 1.3 0.2 2c0.1 0.6 0.3 1.3 0.6 1.9 0.3 0.6 0.6 1.2 0.9 1.7 0.4 0.6 0.8 1.1 1.3 1.5 1.9 1.9 4.4 2.9 7.1 2.9 0.7 0 1.3-0.1 2-0.2 0.6-0.1 1.3-0.3 1.9-0.6 0.6-0.2 1.2-0.6 1.7-0.9 0.6-0.4 1.1-0.8 1.5-1.2 0.5-0.5 0.9-1 1.2-1.5 0.4-0.5 0.7-1.1 0.9-1.7 0.3-0.6 0.4-1.2 0.6-1.9s0.2-1.3 0.2-1.9S216.5 434.7 216.4 434z"/><path d="M480.7 80.9c-2.6-1.9-5.9-2.4-9-1.4 -16.7 5.4-44.1 10.2-77.8 13.7V59.7c0-5.5-4.5-10-10-10 -5.5 0-10 4.5-10 10V88.4H200.6V55.5C200.6 24.9 175.7 0 145 0h-36.4c-5.5 0-10 4.5-10 10s4.5 10 10 10h9.4v73.2C84.4 89.7 57 84.9 40.3 79.5c-3-1-6.4-0.4-9 1.4 -2.6 1.9-4.1 4.9-4.1 8.1v161.5c0 39.7 32.3 72 72 72h80.8c-12.9 16.6-20 37.1-20 58.8v72.7h-56.5c-5.5 0-10 4.5-10 10V502c0 5.5 4.5 10 10 10h305c5.5 0 10-4.5 10-10v-38c0-5.5-4.5-10-10-10h-56.5v-72.7c0-21.7-7.1-42.2-20-58.8h80.8c39.7 0 72-32.3 72-72v-161.5C484.8 85.8 483.3 82.8 480.7 80.9zM299.1 108.4h74.8v109c0 9.1-7.4 16.5-16.5 16.5h-58.3V108.4zM232.9 108.4h46.3v227.6h-13.1V177c0-5.5-4.5-10-10-10 -5.5 0-10 4.5-10 10v159h-13.1V108.4zM256 356c12.8 0 23.1 10.4 23.1 23.1v17.9h-46.3v-17.9h0C232.9 366.4 243.2 356 256 356zM138.1 20h7c19.6 0 35.5 15.9 35.5 35.5V88.4h-42.5V20zM138.1 108.4h74.8v125.5h-58.3c-9.1 0-16.5-7.4-16.5-16.5V108.4zM99.2 302.5c-28.7 0-52-23.3-52-52V102.2c18 4.4 42.1 8.2 70.9 11.1v104.1c0 20.1 16.4 36.5 36.5 36.5h58.3v48.6H99.2zM398.5 474V492H113.5v-18H398.5zM332 381.3v44.7h-82.5c-5.5 0-10 4.5-10 10 0 5.5 4.5 10 10 10h82.5v8.1H180v-72.7c0-23 10.1-44.3 27.8-58.8h5.1v23.5c0 4.5 3 8.3 7 9.6 -4.4 6.8-7 14.9-7 23.6v17.9h-4.6c-5.5 0-10 4.5-10 10 0 5.5 4.5 10 10 10h95.5c5.5 0 10-4.5 10-10 0-5.5-4.5-10-10-10h-4.6v-17.9c0-8.7-2.6-16.8-7-23.6 4.1-1.3 7-5.1 7-9.6v-23.5h5.1C321.9 337 332 358.3 332 381.3zM464.8 250.5c0 28.7-23.3 52-52 52H299.1v-48.6h58.3c20.1 0 36.5-16.4 36.5-36.5V113.3c28.8-2.9 52.9-6.7 70.9-11.1V250.5z"/></svg>
