<svg xmlns="http://www.w3.org/2000/svg" viewBox="0 0 512 512" fill="#FFFFFF"><path d="M160 192.4c-1.9-1.9-4.4-2.9-7.1-2.9s-5.2 1.1-7.1 2.9c-1.9 1.9-2.9 4.4-2.9 7.1 0 2.6 1.1 5.2 2.9 7.1 1.9 1.9 4.4 2.9 7.1 2.9s5.2-1.1 7.1-2.9c1.9-1.9 2.9-4.4 2.9-7.1C162.9 196.8 161.9 194.3 160 192.4z"/><path d="M510.7 381l-52.1-89.9h13.9c3.6 0 6.9-1.9 8.7-5 1.8-3.1 1.8-6.9 0-10l-56.6-97.7h24.2c3.6 0 6.9-1.9 8.7-5 1.8-3.1 1.8-6.9 0-10L365.7 5C363.9 1.9 360.6 0 357 0c-3.6 0-6.9 1.9-8.7 5L256.6 163.4c-1.8 3.1-1.8 6.9 0 10 1.8 3.1 5.1 5 8.7 5h24.2l-56.6 97.7c-1.8 3.1-1.8 6.9 0 10 1.8 3.1 5.1 5 8.7 5h13.9l-46 79.4 -12.8-22.2h5.7c3.6 0 6.9-1.9 8.7-5 1.8-3.1 1.8-6.9 0-10l-39.6-68.5h13.4c3.6 0 6.9-1.9 8.7-5 1.8-3.1 1.8-6.9 0-10l-15.9-27.5c-2.8-4.8-8.9-6.4-13.7-3.7 -4.8 2.8-6.4 8.9-3.7 13.7l7.2 12.5h-13.1c-0.1 0-0.2 0-0.3 0H80c-0.1 0-0.2 0-0.3 0H66.6l50.5-87.4 10.8 18.7c2.8 4.8 8.9 6.4 13.7 3.7 4.8-2.8 6.4-8.9 3.7-13.7l-19.4-33.7c-1.8-3.1-5.1-5-8.7-5 -3.6 0-6.9 1.9-8.7 5l-67.8 117.4c-1.8 3.1-1.8 6.9 0 10 1.8 3.1 5.1 5 8.7 5h13.4l-39.5 68.5c-1.8 3.1-1.8 6.9 0 10 1.8 3.1 5.1 5 8.7 5h5.7L1.3 411c-1.8 3.1-1.8 6.9 0 10 1.8 3.1 5.1 5 8.7 5h77.1V502c0 5.5 4.5 10 10 10h40c5.5 0 10-4.5 10-10v-76h77.1c3.6 0 6.9-1.9 8.7-5 1.8-3.1 1.8-6.9 0-10L224.2 396h98.8v106c0 5.5 4.5 10 10 10h48c5.5 0 10-4.5 10-10V396H502c3.6 0 6.9-1.9 8.7-5C512.4 387.9 512.4 384.1 510.7 381zM85.8 264.7h62.6l36.7 63.5H49.1L85.8 264.7zM127.1 492h-20v-66h20V492zM27.3 406l33.3-57.7h112.9l33.3 57.7H27.3zM371 492h-28v-96h28V492zM229.4 376l49.2-84.9h51.5c5.5 0 10-4.5 10-10 0-5.5-4.5-10-10-10h-71.1l56.6-97.7c1.8-3.1 1.8-6.9 0-10 -1.8-3.1-5.1-5-8.7-5h-24.2L357 30l74.4 128.5h-24.2c-0.1 0-0.2 0-0.3 0 -0.4 0-0.8-0.1-1.2-0.1H357c-5.5 0-10 4.5-10 10 0 5.5 4.5 10 10 10h44.4l53.7 92.8H441.3c-3.6 0-6.9 1.9-8.7 5 -1.8 3.1-1.8 6.9 0 10L484.7 376H229.4z"/><path d="M378.7 274.1c-1.9-1.9-4.4-2.9-7.1-2.9 -2.6 0-5.2 1.1-7.1 2.9 -1.9 1.9-2.9 4.4-2.9 7.1 0 2.6 1.1 5.2 2.9 7.1 1.9 1.9 4.4 2.9 7.1 2.9 2.6 0 5.2-1.1 7.1-2.9 1.9-1.9 2.9-4.4 2.9-7.1C381.7 278.5 380.6 275.9 378.7 274.1z"/></svg>
